<?xml version="1.0" encoding="UTF-8"?>
<svg id="Capa_2" data-name="Capa 2" xmlns="http://www.w3.org/2000/svg" viewBox="0 0 26.98 339">
  <defs>
    <style>
      .cls-1 {
        fill: #87adbc;
        stroke: #87adbc;
        stroke-miterlimit: 10;
      }
    </style>
  </defs>
  <g id="Capa_1-2" data-name="Capa 1">
    <g>
      <line class="cls-1" x1="13.49" y1="339" x2="13.49" y2="0"/>
      <path class="cls-1" d="M17.44,166.82l9.17,7.92-7.92-9.17c-1.96-2.27-1.96-5.63,0-7.89l7.92-9.17-9.17,7.92c-2.27,1.96-5.63,1.96-7.89,0l-9.17-7.92,7.92,9.17c1.96,2.27,1.96,5.63,0,7.89l-7.92,9.17,9.17-7.92c2.27-1.96,5.63-1.96,7.89,0Z"/>
      <path class="cls-1" d="M17.94,113.11l5.3-6.24-5.84,5.73c-2.23,2.19-5.76,2.31-8.14.29l-6.24-5.3,5.73,5.84c2.19,2.23,2.31,5.76.29,8.14l-5.3,6.24,5.84-5.73c2.23-2.19,5.76-2.31,8.14-.29l6.24,5.3-5.73-5.84c-2.19-2.23-2.31-5.76-.29-8.14Z"/>
      <path class="cls-1" d="M17.85,200.05l5.39-6.18-5.78,5.82c-2.24,2.26-5.85,2.38-8.25.29l-6.18-5.39,5.82,5.78c2.26,2.24,2.38,5.85.29,8.25l-5.39,6.18,5.78-5.82c2.24-2.26,5.85-2.38,8.25-.29l6.18,5.39-5.82-5.78c-2.26-2.24-2.38-5.85-.29-8.25Z"/>
    </g>
  </g>
</svg>