<?xml version="1.0" encoding="UTF-8"?>
<svg id="Capa_2" data-name="Capa 2" xmlns="http://www.w3.org/2000/svg" viewBox="0 0 53.98 26.29">
  <defs>
    <style>
      .cls-1 {
        fill: none;
      }
    </style>
  </defs>
  <g id="Capa_1-2" data-name="Capa 1">
    <g>
      <path d="M27.2,20.41c-1.03.71-2.01,1.47-3.06,2.1-3.75,2.23-7.82,3.32-12.19,3.1-2.91-.15-5.63-.93-8.02-2.67C.71,20.59-.69,16.59.33,12.75c.76-2.86,2.36-5.19,4.52-7.15C8.2,2.56,12.16.8,16.63.19c3.11-.42,6.15-.17,9.08,1.02.36.15.71.32,1.06.5.18.1.31.09.49-.01C29.76.35,32.46-.1,35.26.04c4.43.23,8.39,1.75,11.92,4.39,2.66,1.99,4.77,4.45,5.97,7.6,1.17,3.07,1.19,6.1-.52,9-1.15,1.96-2.88,3.27-4.96,4.13-2.48,1.03-5.08,1.3-7.73,1.02-4.86-.51-9.08-2.45-12.69-5.74-.03-.03-.07-.05-.05-.04ZM23.62,5.02c-1.08-.11-2.08-.27-3.07-.31-2.87-.09-5.61.53-8.23,1.7-2.83,1.26-5.26,3.02-7.06,5.58-1.09,1.55-1.8,3.24-1.84,5.16,0,.17.07.38.18.51.6.71,1.32,1.27,2.12,1.72,2.4,1.35,5.01,1.71,7.71,1.52,3.19-.23,6.14-1.21,8.87-2.87.64-.39,1.25-.85,1.89-1.28-1.08-1.82-1.81-3.69-1.99-5.76-.17-2.09.27-4.04,1.42-5.96ZM30.28,16.79c.09.08.18.16.27.24,1.53,1.29,3.22,2.33,5.06,3.11,3.07,1.29,6.24,1.88,9.56,1.31,1.83-.31,3.49-1,4.89-2.26.22-.19.31-.4.32-.69.07-1.97-.52-3.75-1.51-5.41-1.33-2.23-3.17-3.97-5.35-5.35-3.11-1.97-6.49-3.11-10.21-3.1-.9,0-1.79.13-2.75.2,2.65,4.11,2.07,8.05-.28,11.95ZM28.81,5.42c.09.26.18.48.25.7.64,2.05.37,4.02-.52,5.93-1.18,2.55-3.07,4.49-5.4,6-3.86,2.51-8.08,3.7-12.69,3.27-1.81-.17-3.53-.67-5.1-1.6-3.07-1.82-4.42-4.82-3.72-8.25.13-.63.36-1.23.54-1.82-.47.64-1.08,2.05-1.38,3.29-.72,3.01-.17,5.75,1.86,8.12,1.47,1.72,3.37,2.77,5.51,3.4,3.04.9,6.11.89,9.18.21,4.1-.91,7.71-2.75,10.64-5.8,2.04-2.12,3.46-4.57,3.79-7.56.24-2.23-.29-4.28-1.6-6.11-.05-.07-.19-.14-.26-.12-.36.09-.72.22-1.09.34ZM25.99,6.47c1.05-.82,2.21-1.41,3.48-1.78,2.29-.67,4.61-.71,6.93-.26,4.74.9,8.74,3.11,11.82,6.88,1.28,1.57,2.19,3.34,2.53,5.36.08.5.11,1.01.16,1.54.05-.06.09-.1.12-.15.88-1.27,1.26-2.68,1.2-4.21-.09-2.04-.85-3.84-2.01-5.49-2.04-2.91-4.82-4.9-8.08-6.25-3.19-1.31-6.48-1.85-9.9-1.11-1.91.41-3.6,1.25-4.9,2.76-.67.78-1.14,1.67-1.35,2.7ZM30.04,17.24c-.84.96-1.65,1.88-2.51,2.86.63.51,1.26,1.06,1.94,1.55,3.14,2.27,6.62,3.67,10.49,4.06,2.42.24,4.8.04,7.09-.82,2.22-.83,4.06-2.16,5.25-4.26,1.3-2.28,1.46-4.7.78-7.2-.2-.72-.48-1.43-.72-2.14-.03.01-.06.02-.1.03.08.29.16.58.22.87.78,3.29-.41,6.37-3.19,8.2-1.74,1.14-3.69,1.63-5.74,1.73-3.42.16-6.62-.68-9.64-2.24-1.4-.73-2.7-1.61-3.88-2.64ZM2.87,16.65c.18-.74.31-1.46.54-2.14.92-2.65,2.67-4.7,4.9-6.31,4.6-3.32,9.69-4.71,15.35-3.59.09.02.24,0,.3-.07.61-.65,1.2-1.3,1.81-1.97.02.01-.01,0-.04-.03-.13-.08-.26-.17-.4-.25-1.97-1.18-4.13-1.65-6.4-1.69-3.18-.06-6.18.72-9,2.14-2.72,1.37-5.03,3.24-6.63,5.88-1.07,1.78-1.62,3.7-1.27,5.8.13.8.41,1.54.84,2.23ZM24.51,16.44c.95-.82,1.72-1.63,2.38-2.55.06-.08.04-.25,0-.35-.29-.59-.63-1.16-.88-1.77-.62-1.5-.92-3.06-.67-4.68.42-2.65,1.93-4.48,4.28-5.68.13-.07.26-.13.39-.19.13-.06.26-.11.38-.17-1.18.24-2.27.68-3.28,1.3-2.12,1.3-3.58,3.1-4.18,5.54-.52,2.09-.28,4.13.48,6.11.31.81.71,1.58,1.1,2.42ZM27.29,13.25c.06-.06.09-.07.11-.1.87-1.38,1.42-2.87,1.52-4.51.02-.3-.05-.54-.28-.74-.29-.26-.54-.57-.85-.8-1.08-.8-.7-.84-1.76.06-.12.1-.24.28-.25.44-.15,2.05.47,3.89,1.51,5.66ZM28.78,7.29s.05-.02.08-.03c-.16-.54-.31-1.07-.48-1.65-.37.2-.68.36-1,.53.49.4.95.78,1.41,1.16ZM26.47,2.22s0-.09.01-.13c-.49-.21-.98-.43-1.47-.64.36.31.75.56,1.15.79.07.04.2-.01.31-.02Z"/>
      <path class="cls-1" d="M28.81,5.42c.37-.12.73-.24,1.09-.34.07-.02.21.05.26.12,1.31,1.83,1.84,3.88,1.6,6.11-.33,2.98-1.75,5.44-3.79,7.56-2.93,3.05-6.54,4.89-10.64,5.8-3.07.68-6.14.7-9.18-.21-2.14-.64-4.05-1.68-5.51-3.4C.62,18.69.07,15.95.79,12.94c.3-1.24.91-2.65,1.38-3.29-.18.59-.41,1.2-.54,1.82-.71,3.43.65,6.43,3.72,8.25,1.57.94,3.3,1.43,5.1,1.6,4.62.43,8.84-.75,12.69-3.27,2.32-1.52,4.22-3.45,5.4-6,.88-1.91,1.15-3.88.52-5.93-.07-.22-.15-.44-.25-.7Z"/>
      <path class="cls-1" d="M25.99,6.47c.21-1.03.68-1.92,1.35-2.7,1.3-1.51,2.99-2.35,4.9-2.76,3.42-.74,6.71-.2,9.9,1.11,3.26,1.34,6.03,3.33,8.08,6.25,1.16,1.65,1.92,3.45,2.01,5.49.07,1.53-.32,2.94-1.2,4.21-.03.04-.07.08-.12.15-.06-.54-.08-1.05-.16-1.54-.34-2.02-1.25-3.79-2.53-5.36-3.07-3.77-7.07-5.98-11.82-6.88-2.32-.44-4.64-.4-6.93.26-1.27.37-2.42.96-3.48,1.78Z"/>
      <path class="cls-1" d="M30.04,17.24c1.18,1.03,2.48,1.91,3.88,2.64,3.02,1.57,6.22,2.4,9.64,2.24,2.05-.1,4-.59,5.74-1.73,2.79-1.83,3.97-4.91,3.19-8.2-.07-.29-.15-.58-.22-.87.03-.01.06-.02.1-.03.24.71.53,1.41.72,2.14.67,2.49.52,4.92-.78,7.2-1.2,2.09-3.03,3.42-5.25,4.26-2.29.86-4.67,1.07-7.09.82-3.87-.39-7.35-1.79-10.49-4.06-.68-.49-1.3-1.04-1.94-1.55.86-.97,1.67-1.9,2.51-2.86Z"/>
      <path class="cls-1" d="M2.87,16.65c-.43-.69-.7-1.43-.84-2.23-.35-2.1.2-4.01,1.27-5.8,1.59-2.65,3.9-4.51,6.63-5.88,2.83-1.42,5.82-2.2,9-2.14,2.27.04,4.43.51,6.4,1.69.13.08.26.17.4.25.03.02.05.04.04.03-.61.67-1.2,1.32-1.81,1.97-.06.06-.2.09-.3.07-5.66-1.12-10.74.28-15.35,3.59-2.23,1.61-3.98,3.66-4.9,6.31-.24.68-.36,1.4-.54,2.14Z"/>
      <path class="cls-1" d="M24.51,16.44c-.39-.84-.79-1.62-1.1-2.42-.76-1.98-1-4.02-.48-6.11.61-2.44,2.07-4.24,4.18-5.54,1.01-.62,2.11-1.06,3.28-1.3-.13.06-.26.11-.38.17-.13.06-.26.12-.39.19-2.35,1.2-3.86,3.03-4.28,5.68-.26,1.62.04,3.18.67,4.68.25.61.59,1.17.88,1.77.05.1.06.27,0,.35-.66.92-1.44,1.73-2.38,2.55Z"/>
      <path class="cls-1" d="M28.78,7.29c-.46-.38-.92-.75-1.41-1.16.32-.17.63-.33,1-.53.17.58.33,1.12.48,1.65-.03.01-.05.02-.08.03Z"/>
      <path class="cls-1" d="M26.47,2.22c-.1,0-.23.06-.31.02-.4-.23-.79-.48-1.15-.79.49.21.98.43,1.47.64,0,.04,0,.09-.01.13Z"/>
    </g>
  </g>
</svg>