<?xml version="1.0" encoding="UTF-8"?>
<svg id="Capa_2" data-name="Capa 2" xmlns="http://www.w3.org/2000/svg" viewBox="0 0 551.46 791.35">
  <defs>
    <style>
      .cls-1 {
        fill: #1d1d1b;
        stroke: #1d1d1b;
        stroke-miterlimit: 10;
      }
    </style>
  </defs>
  <g id="Capa_1-2" data-name="Capa 1">
    <path class="cls-1" d="M205.8,275.32l.69-.38c.52-.19,1.04-.57,1.73-1.15s1.39-1.34,2.08-2.49c.52-.96,1.04-2.3,1.39-3.83.35-1.53.52-3.26.52-5.17v-3.07c-.17-4.02-1.9-10.35-5.02-18.97l-22.16-56.34H57.05l-22.34,57.11c-3.29,8.43-4.85,15.52-4.85,21.27,0,2.68.52,5.17,1.56,7.47.87,2.49,2.25,4.02,3.98,4.98l.87.57H2.51l2.77-1.15c1.73-.57,3.98-2.11,6.93-4.41,2.77-2.11,5.89-5.56,9.18-10.16,3.29-4.6,6.41-10.73,9.52-18.4L118.35,17.17c-2.94-4.79-5.71-8.24-7.97-10.73-2.42-2.49-4.33-4.02-5.71-4.79l-2.08-1.15h31.34c2.77,2.11,6.06,6.52,9.87,13.22s8.31,16.67,13.33,30.09l77.4,198.16c3.12,7.67,6.23,13.8,9.52,18.21,3.29,4.6,6.23,8.05,9,10.16s5.02,3.45,6.75,4.02l2.6.96h-56.62ZM152.99,102.07c-20.09-50.79-30.82-77.81-32.38-80.87l-62.16,158.87h125.2l-30.65-78Z"/>
    <path class="cls-1" d="M493.5,790.85l1.48-.56c.82-.19,1.98-.93,3.46-2.05s2.8-2.8,4.29-5.23c1.48-2.24,2.64-5.42,3.63-9.34.82-3.92,1.32-8.96,1.32-15.13v-211.42c-1.81,3.55-17.98,40.15-48.65,109.63-30.84,69.48-46.84,105.89-48.15,109.44,4.12,7.1,7.92,12.33,11.71,15.87,3.79,3.55,6.76,5.98,9.24,7.1l3.63,1.68h-39.74l-16-36.61c-58.38-132.42-88.56-200.96-90.7-205.44-.16,2.99-.16,38.1-.16,105.33l-.16,103.28c.16,5.98.66,11.02,1.65,14.94.82,3.92,1.98,7.1,3.46,9.52,1.48,2.43,2.8,4.3,4.29,5.6,1.32,1.31,2.47,2.24,3.46,2.61l1.48.75h-32.16l1.48-.75c.82-.37,1.98-1.31,3.46-2.61,1.48-1.31,2.8-3.17,4.29-5.79,1.48-2.43,2.64-5.79,3.63-9.9.82-3.92,1.32-8.96,1.32-15.13v-199.46c0-6.16-.82-11.58-2.47-15.87-1.65-4.3-3.46-7.84-5.61-10.65-2.14-2.61-4.12-4.48-5.77-5.79l-2.64-1.87h31.66l.66.75c1.15,1.31,2.97,4.11,5.44,8.4,3.3,5.79,7.26,14.19,12.04,25.03l90.21,204.69,105.38-238.87h33.48l-1.48.56c-.99.19-2.14.93-3.46,2.05-1.48,1.31-2.8,2.99-4.29,5.23-1.48,2.43-2.64,5.6-3.46,9.52-.99,3.92-1.48,8.96-1.48,14.94v203.57c0,5.98.49,11.02,1.48,14.94.82,3.92,1.98,7.1,3.46,9.34,1.48,2.43,2.8,4.11,4.29,5.04,1.32,1.12,2.47,1.87,3.46,2.24l1.48.37h-53.93Z"/>
    <path class="cls-1" d="M326.08,457.01v.88h-16.77c-2.11-2.24-4.73-4.94-7.68-8.04-8.08,6.55-18.72,10.69-31.16,10.69-24.71,0-45.89-13.57-45.89-40.16,0-18.91,12.94-32.77,29.27-38.08-2.24-5.96-3.85-11.97-4.56-17.96-2.65-22.06,8.82-35.3,24.71-35.3,14.12,0,24.71,8.83,24.71,24.71,0,14.72-13.36,23.31-21.07,26.23l27.25-1.51-2.65,2.65h-12.22c9.87,2.31,25.16,9.72,27.92,28.16,1.64,10.99-1.23,22.14-7.58,31.22,6.52,7,12.15,12.75,15.71,16.52ZM300.39,448.54c-14.25-15.07-35.29-38.68-45.51-63.66-9.8,6.32-16.16,18.56-16.16,34.19,0,39.38,35.02,48.42,57.45,32.9,1.55-1.07,2.94-2.22,4.22-3.43ZM310.06,408.56c-3.26-17.45-16.34-27.44-26.49-27.44h-10.43v-.88c11.15-1.29,15.89-14.12,15.89-25.59s-5.29-24.71-15-24.71c-13.24,0-17.65,15-15,32.65,3.44,22.94,29.32,54,48.88,75.23,3.89-8.9,4.02-19.3,2.16-29.26Z"/>
  </g>
</svg>