<?xml version="1.0" encoding="UTF-8"?>
<svg id="Capa_2" data-name="Capa 2" xmlns="http://www.w3.org/2000/svg" viewBox="0 0 423.05 189.05">
  <defs>
    <style>
      .cls-1, .cls-2 {
        fill: #87adbc;
      }

      .cls-1, .cls-3 {
        stroke: #87adbc;
        stroke-miterlimit: 10;
      }

      .cls-3 {
        fill: none;
        stroke-width: 1.05px;
      }
    </style>
  </defs>
  <g id="Capa_1-2" data-name="Capa 1">
    <path class="cls-3" d="M233.11,3.04c115.83,11.28,200.14,57.33,188.31,102.87-11.83,45.54-115.31,73.31-231.14,62.04C74.45,156.67-9.86,110.61,1.97,65.07,13.8,19.53,117.28-8.24,233.11,3.04Z"/>
    <path class="cls-3" d="M232.78,21.11c115.83,11.28,200.14,57.33,188.31,102.87-11.83,45.54-115.31,73.31-231.14,62.04C74.11,174.74-10.2,128.68,1.63,83.14,13.46,37.6,116.95,9.83,232.78,21.11Z"/>
    <path class="cls-2" d="M68.5,134.48l2.86,16.3c.55,3.15,2.92,5.67,6.02,6.43l13.15,3.19-13.15,3.19c-3.11.75-5.47,3.28-6.02,6.43l-2.86,16.3-2.86-16.3c-.55-3.15-2.92-5.67-6.02-6.43l-13.15-3.19,13.15-3.19c3.11-.75,5.47-3.28,6.02-6.43l2.86-16.3Z"/>
    <path class="cls-1" d="M322.29,10.32l2.86,16.3c.55,3.15,2.92,5.67,6.02,6.43l13.15,3.19-13.15,3.19c-3.11.75-5.47,3.28-6.02,6.43l-2.86,16.3-2.86-16.3c-.55-3.15-2.92-5.67-6.02-6.43l-13.15-3.19,13.15-3.19c3.11-.75,5.47-3.28,6.02-6.43l2.86-16.3Z"/>
  </g>
</svg>