<?xml version="1.0" encoding="UTF-8"?>
<svg id="Capa_2" data-name="Capa 2" xmlns="http://www.w3.org/2000/svg" viewBox="0 0 706.21 426.11">
  <defs>
    <style>
      .cls-1, .cls-2, .cls-3, .cls-4 {
        stroke: #87adbc;
        stroke-miterlimit: 10;
      }

      .cls-1, .cls-5 {
        fill: #87adbc;
      }

      .cls-2 {
        stroke-width: 1.61px;
      }

      .cls-2, .cls-3, .cls-4 {
        fill: none;
      }

      .cls-3 {
        stroke-width: 1.93px;
      }

      .cls-4 {
        stroke-width: 2.11px;
      }
    </style>
  </defs>
  <g id="Capa_1-2" data-name="Capa 1">
    <path class="cls-4" d="M199.27,1.06h342c63.47,0,115,51.53,115,115v309H84.27V116.06C84.27,52.59,135.8,1.06,199.27,1.06Z"/>
    <g>
      <path class="cls-3" d="M449.29,159.05c268.84,30.28,303.44,207.27,206.99,251"/>
      <path class="cls-5" d="M413.8,119.62l5.13,26.43c.94,4.84,4.87,8.53,9.76,9.17l33.95,4.42-33.95,4.42c-4.89.64-8.82,4.33-9.76,9.17l-5.13,26.43-5.13-26.43c-.94-4.84-4.87-8.53-9.76-9.17l-33.95-4.42,33.95-4.42c4.89-.64,8.82-4.33,9.76-9.17l5.13-26.43Z"/>
    </g>
    <g>
      <path class="cls-2" d="M257.99,356.61C-22.4,318.69-62.5,201.26,84.27,186.06"/>
      <path class="cls-1" d="M280.8,328.42l2.87,15.85c.88,4.86,4.78,8.61,9.68,9.3l19.14,2.67-19.14,2.67c-4.9.68-8.8,4.43-9.68,9.3l-2.87,15.85-2.87-15.85c-.88-4.86-4.78-8.61-9.68-9.3l-19.14-2.67,19.14-2.67c4.9-.68,8.8-4.43,9.68-9.3l2.87-15.85Z"/>
    </g>
  </g>
</svg>